<svg xmlns="http://www.w3.org/2000/svg" xmlns:xlink="http://www.w3.org/1999/xlink" width="500" zoomAndPan="magnify" viewBox="0 0 375 374.999991" height="500" preserveAspectRatio="xMidYMid meet" version="1.0"><defs><g/><clipPath id="19a4714130"><path d="M 0.660156 0 L 375 0 L 375 375 L 0.660156 375 Z M 0.660156 0 " clip-rule="nonzero"/></clipPath><clipPath id="a9fb99ff2b"><path d="M 187.828125 0 C 84.457031 0 0.660156 83.945312 0.660156 187.5 C 0.660156 291.054688 84.457031 375 187.828125 375 C 291.199219 375 375 291.054688 375 187.5 C 375 83.945312 291.199219 0 187.828125 0 Z M 187.828125 0 " clip-rule="nonzero"/></clipPath><clipPath id="37010f3528"><path d="M 0.660156 0 L 375 0 L 375 375 L 0.660156 375 Z M 0.660156 0 " clip-rule="nonzero"/></clipPath><clipPath id="309382c447"><path d="M 187.828125 0 C 84.457031 0 0.660156 83.945312 0.660156 187.5 C 0.660156 291.054688 84.457031 375 187.828125 375 C 291.199219 375 375 291.054688 375 187.5 C 375 83.945312 291.199219 0 187.828125 0 Z M 187.828125 0 " clip-rule="nonzero"/></clipPath><clipPath id="7266694875"><rect x="0" width="375" y="0" height="375"/></clipPath><clipPath id="115da660fd"><path d="M 0.878906 0.640625 L 160.480469 0.640625 L 160.480469 355 L 0.878906 355 Z M 0.878906 0.640625 " clip-rule="nonzero"/></clipPath><clipPath id="9d02a428af"><rect x="0" width="161" y="0" height="355"/></clipPath><clipPath id="5d7e0732d4"><path d="M 0.800781 38 L 1 38 L 1 39 L 0.800781 39 Z M 0.800781 38 " clip-rule="nonzero"/></clipPath><clipPath id="3622c29a3c"><rect x="0" width="136" y="0" height="49"/></clipPath><clipPath id="5a264f9140"><rect x="0" width="161" y="0" height="355"/></clipPath></defs><g clip-path="url(#19a4714130)"><g clip-path="url(#a9fb99ff2b)"><g transform="matrix(1, 0, 0, 1, 0.000000000000000056, 0)"><g clip-path="url(#7266694875)"><g clip-path="url(#37010f3528)"><g clip-path="url(#309382c447)"><path fill="#2b2b2b" d="M 0.660156 0 L 375 0 L 375 374.339844 L 0.660156 374.339844 Z M 0.660156 0 " fill-opacity="1" fill-rule="nonzero"/></g></g></g></g></g></g><g transform="matrix(1, 0, 0, 1, 98, 20)"><g clip-path="url(#5a264f9140)"><g clip-path="url(#115da660fd)"><g><g clip-path="url(#9d02a428af)"><g fill="#ffffff" fill-opacity="1"><g transform="translate(3.212233, 249.695545)"><g><path d="M 73.25 -22.296875 C 72.007812 -26.710938 70.148438 -29.1875 67.671875 -29.71875 C 66.265625 -38.75 63.96875 -43.972656 60.78125 -45.390625 C 59.007812 -46.628906 56.175781 -47.25 52.28125 -47.25 L 50.6875 -47.25 C 49.800781 -47.25 49.179688 -47.160156 48.828125 -46.984375 L 48.5625 -43.53125 L 49.09375 -41.671875 L 48.5625 -40.875 L 48.5625 -40.078125 L 49.09375 -39.28125 L 49.09375 -37.953125 L 48.5625 -37.953125 L 49.09375 -25.75 L 49.09375 -13.796875 L 49.625 -11.140625 L 49.09375 -8.765625 L 49.890625 -1.859375 L 49.625 -1.0625 L 49.890625 -0.265625 L 50.421875 -0.265625 L 50.953125 -1.0625 L 54.9375 0.265625 L 56.796875 -1.859375 L 57.859375 1.59375 L 57.328125 1.59375 L 50.953125 2.125 L 49.625 1.59375 L 46.453125 2.125 L 45.390625 2.125 L 39.546875 1.59375 L 37.6875 2.125 L 25.75 1.59375 L 16.453125 1.59375 L 16.453125 0.796875 L 16.984375 0 C 16.628906 0 16.007812 0 15.125 0 C 14.238281 0 13.085938 -0.0859375 11.671875 -0.265625 C 10.429688 -0.265625 8.925781 -0.304688 7.15625 -0.390625 C 5.394531 -0.484375 3.363281 -0.617188 1.0625 -0.796875 C 0.351562 -1.503906 0 -2.390625 0 -3.453125 L 0 -5.046875 C 0 -6.992188 0.265625 -8.847656 0.796875 -10.609375 L 2.921875 -18.3125 L 3.453125 -19.90625 C 3.453125 -20.4375 3.628906 -21.234375 3.984375 -22.296875 C 5.753906 -21.941406 6.726562 -20.613281 6.90625 -18.3125 C 7.082031 -16.007812 5.929688 -13.175781 3.453125 -9.8125 L 4.78125 -8.5 C 6.375 -9.375 7.171875 -10.429688 7.171875 -11.671875 C 10.523438 -11.671875 13.265625 -15.210938 15.390625 -22.296875 L 13.265625 -23.890625 L 8.765625 -23.890625 L 7.96875 -26.8125 L 8.765625 -27.609375 L 6.90625 -29.71875 C 6.90625 -27.78125 6.460938 -26.8125 5.578125 -26.8125 L 6.109375 -26.015625 C 6.109375 -25.304688 5.488281 -24.597656 4.25 -23.890625 C 4.957031 -27.242188 5.53125 -30.425781 5.96875 -33.4375 C 6.414062 -36.445312 6.726562 -39.191406 6.90625 -41.671875 L 7.96875 -48.828125 L 9.03125 -52.8125 L 9.546875 -53.34375 L 9.296875 -53.34375 L 11.671875 -62.90625 C 11.847656 -64.851562 11.9375 -66.617188 11.9375 -68.203125 C 11.9375 -69.796875 11.9375 -71.125 11.9375 -72.1875 C 11.9375 -74.132812 11.976562 -75.859375 12.0625 -77.359375 C 12.15625 -78.867188 12.289062 -80.242188 12.46875 -81.484375 L 17.78125 -115.453125 C 17.957031 -116.335938 18.175781 -117.53125 18.4375 -119.03125 C 18.707031 -120.539062 18.929688 -122.351562 19.109375 -124.46875 C 20.523438 -129.070312 21.71875 -133.894531 22.6875 -138.9375 C 23.664062 -143.976562 24.507812 -149.242188 25.21875 -154.734375 L 27.34375 -168.53125 C 27.695312 -169.59375 28.046875 -171.007812 28.390625 -172.78125 C 28.742188 -174.550781 29.1875 -176.765625 29.71875 -179.421875 L 34.5 -209.140625 L 37.15625 -210.734375 C 52.195312 -210.734375 62.632812 -210.203125 68.46875 -209.140625 L 69.265625 -207.28125 C 69.085938 -206.394531 69 -205.507812 69 -204.625 C 69 -203.738281 69 -202.851562 69 -201.96875 C 69 -199.5 70.59375 -191.984375 73.78125 -179.421875 L 74.046875 -174.640625 C 74.046875 -173.046875 74.085938 -171.097656 74.171875 -168.796875 C 74.265625 -166.492188 74.398438 -163.84375 74.578125 -160.84375 C 74.753906 -160.3125 74.84375 -159.070312 74.84375 -157.125 L 75.375 -151.28125 C 75.726562 -149.6875 76.257812 -147.914062 76.96875 -145.96875 C 77.320312 -144.90625 77.628906 -143.710938 77.890625 -142.390625 C 78.160156 -141.066406 78.5625 -139.695312 79.09375 -138.28125 C 78.914062 -135.625 79.003906 -133.007812 79.359375 -130.4375 C 79.710938 -127.875 80.242188 -125.09375 80.953125 -122.09375 C 81.304688 -120.675781 81.660156 -119.082031 82.015625 -117.3125 C 82.367188 -115.539062 82.8125 -113.503906 83.34375 -111.203125 L 83.34375 -109.875 L 82.8125 -110.671875 L 82.28125 -110.671875 L 82.28125 -109.875 L 81.75 -109.875 L 82.015625 -108.28125 L 82.28125 -108.28125 C 82.28125 -109.34375 82.632812 -109.875 83.34375 -109.875 C 83.34375 -108.457031 83.382812 -106.734375 83.46875 -104.703125 C 83.5625 -102.671875 83.695312 -100.414062 83.875 -97.9375 C 84.226562 -96.695312 84.492188 -95.675781 84.671875 -94.875 C 84.847656 -94.082031 85.023438 -93.507812 85.203125 -93.15625 L 85.203125 -92.625 L 85.453125 -91.296875 L 85.984375 -90.234375 L 84.671875 -89.96875 L 84.9375 -84.9375 L 84.40625 -82.015625 L 85.984375 -81.75 L 86.78125 -86.78125 L 87.046875 -87.046875 C 87.046875 -86.335938 87.222656 -85.632812 87.578125 -84.9375 C 87.753906 -84.582031 87.84375 -84.226562 87.84375 -83.875 C 87.84375 -83.519531 87.84375 -83.253906 87.84375 -83.078125 C 87.84375 -82.898438 87.84375 -82.585938 87.84375 -82.140625 C 87.84375 -81.703125 87.753906 -81.21875 87.578125 -80.6875 C 87.398438 -80.15625 87.265625 -79.710938 87.171875 -79.359375 C 87.085938 -79.003906 87.046875 -78.648438 87.046875 -78.296875 C 87.046875 -78.117188 87.085938 -77.941406 87.171875 -77.765625 C 87.265625 -77.585938 87.3125 -77.320312 87.3125 -76.96875 C 88.375 -73.070312 89.703125 -66.96875 91.296875 -58.65625 C 91.472656 -56.707031 91.472656 -54.847656 91.296875 -53.078125 L 91.296875 -51.75 C 91.117188 -51.570312 91.03125 -51.394531 91.03125 -51.21875 C 91.03125 -51.039062 91.03125 -50.953125 91.03125 -50.953125 C 91.03125 -50.066406 91.207031 -49.09375 91.5625 -48.03125 C 91.914062 -45.5625 92.710938 -42.289062 93.953125 -38.21875 C 94.835938 -36.09375 95.457031 -34.234375 95.8125 -32.640625 C 96.164062 -31.046875 96.429688 -29.71875 96.609375 -28.65625 C 96.429688 -27.25 96.296875 -25.484375 96.203125 -23.359375 C 96.117188 -21.234375 96.164062 -18.84375 96.34375 -16.1875 L 98.203125 -9.546875 L 99.265625 -9.8125 L 99.796875 -9.03125 L 99.796875 -6.90625 C 99.796875 -6.195312 99.617188 -5.664062 99.265625 -5.3125 L 100.0625 -2.65625 C 98.113281 -1.414062 94.304688 -0.796875 88.640625 -0.796875 C 86.691406 -1.679688 83.953125 -2.035156 80.421875 -1.859375 C 76.347656 -1.859375 73.515625 -2.125 71.921875 -2.65625 C 70.859375 -4.25 70.0625 -7.253906 69.53125 -11.671875 C 72.007812 -14.148438 73.25 -17.691406 73.25 -22.296875 Z M 75.90625 -134.828125 L 75.375 -134.03125 L 75.640625 -133.5 L 76.4375 -134.03125 Z M 59.71875 -76.171875 C 60.070312 -76.703125 60.335938 -77.1875 60.515625 -77.625 C 60.691406 -78.070312 60.78125 -78.382812 60.78125 -78.5625 L 60.25 -81.75 C 59.71875 -83.695312 59.140625 -86.4375 58.515625 -89.96875 C 57.898438 -93.507812 57.148438 -97.9375 56.265625 -103.25 L 54.9375 -112 C 54.757812 -113.769531 54.445312 -115.582031 54 -117.4375 C 53.5625 -119.300781 53.164062 -121.289062 52.8125 -123.40625 L 49.359375 -123.40625 L 47.5 -118.109375 C 47.15625 -117.046875 46.757812 -115.894531 46.3125 -114.65625 C 45.875 -113.414062 45.390625 -112.085938 44.859375 -110.671875 C 44.503906 -108.367188 43.972656 -105.273438 43.265625 -101.390625 L 43.265625 -90.5 L 42.203125 -86.515625 C 42.023438 -85.804688 41.847656 -85.144531 41.671875 -84.53125 C 41.492188 -83.914062 41.226562 -83.34375 40.875 -82.8125 C 39.988281 -79.625 39.546875 -76.789062 39.546875 -74.3125 C 41.492188 -73.070312 44.320312 -72.453125 48.03125 -72.453125 L 57.859375 -72.453125 C 58.921875 -73.867188 59.539062 -75.109375 59.71875 -76.171875 Z M 29.984375 -103.78125 L 29.984375 -103.515625 L 30.78125 -103.515625 L 32.375 -110.9375 L 31.3125 -110.9375 Z M 81.21875 -101.125 L 81.21875 -100.328125 L 82.8125 -100.328125 L 82.8125 -100.859375 Z M 38.75 -99.53125 L 38.484375 -99.53125 L 39.546875 -98.46875 L 40.078125 -98.46875 L 40.078125 -98.734375 Z M 28.65625 -94.21875 L 28.40625 -93.6875 L 29.453125 -93.421875 L 29.453125 -94.21875 Z M 28.40625 -92.890625 L 27.875 -89.703125 L 28.65625 -89.703125 L 29.1875 -92.625 Z M 91.03125 -87.046875 L 88.90625 -83.875 L 88.375 -83.875 L 88.375 -85.453125 L 90.5 -87.046875 Z M 53.078125 -79.890625 L 53.875 -81.21875 L 54.40625 -80.6875 L 54.40625 -79.890625 Z M 59.453125 -71.65625 L 58.921875 -72.453125 L 58.65625 -72.453125 L 58.65625 -71.921875 L 59.1875 -71.65625 Z M 84.671875 -71.921875 L 83.078125 -71.921875 L 81.484375 -60.78125 L 83.078125 -60.78125 L 83.34375 -61.84375 L 84.40625 -63.171875 L 83.609375 -65.296875 Z M 47.5 -2.65625 L 48.03125 -6.109375 C 48.03125 -7.703125 47.148438 -10.265625 45.390625 -13.796875 L 45.390625 -15.390625 L 46.453125 -15.390625 L 46.453125 -13.265625 L 46.984375 -13.265625 L 46.984375 -14.59375 L 47.5 -14.59375 L 46.984375 -15.390625 L 47.5 -21.234375 L 46.453125 -33.703125 L 47.5 -39.28125 L 47.5 -44.328125 C 47.5 -45.742188 47.414062 -46.628906 47.25 -46.984375 C 40.519531 -45.921875 36.800781 -44.503906 36.09375 -42.734375 C 35.5625 -42.023438 35.160156 -41.316406 34.890625 -40.609375 C 34.628906 -39.898438 34.320312 -39.101562 33.96875 -38.21875 L 35.5625 -25.21875 L 36.09375 -25.21875 L 35.5625 -21.765625 L 35.5625 -7.4375 L 35.296875 -7.4375 C 34.054688 -7.4375 33.347656 -11.238281 33.171875 -18.84375 L 33.96875 -20.4375 L 33.703125 -29.453125 L 33.171875 -29.453125 L 33.171875 -27.875 L 32.640625 -27.875 L 32.109375 -28.65625 L 31.84375 -28.921875 C 31.3125 -26.097656 31.046875 -24.332031 31.046875 -23.625 C 30.691406 -22.914062 30.425781 -21.675781 30.25 -19.90625 C 30.070312 -18.132812 29.894531 -15.832031 29.71875 -13 L 28.40625 -12.46875 C 28.40625 -12.46875 28.578125 -12.289062 28.921875 -11.9375 L 29.71875 -10.875 C 29.71875 -9.113281 29.671875 -7.476562 29.578125 -5.96875 C 29.492188 -4.46875 29.363281 -3.097656 29.1875 -1.859375 L 27.34375 -1.859375 C 26.8125 -1.328125 26.28125 -1.0625 25.75 -1.0625 C 26.8125 -0.53125 27.78125 -0.265625 28.65625 -0.265625 L 30.25 -1.0625 L 29.71875 -1.859375 L 29.71875 -2.65625 L 30.78125 -7.4375 L 31.046875 -7.4375 C 31.753906 -7.4375 32.109375 -6.460938 32.109375 -4.515625 L 32.640625 -3.984375 L 33.171875 -3.984375 L 33.703125 -4.515625 L 33.96875 -3.984375 L 34.765625 -3.984375 L 36.09375 -4.515625 L 37.15625 -1.0625 L 38.75 -1.859375 L 38.75 0.796875 L 39.015625 0.796875 L 40.078125 -2.65625 L 40.078125 -8.765625 L 40.875 -10.34375 L 41.671875 -10.34375 L 41.671875 -6.90625 C 41.671875 -4.425781 42.203125 -3.007812 43.265625 -2.65625 L 43.53125 -2.65625 C 43.53125 -4.957031 43.882812 -6.109375 44.59375 -6.109375 L 44.59375 -5.3125 L 44.0625 -1.859375 L 44.59375 -1.859375 L 45.390625 -3.453125 L 46.1875 -2.65625 Z M 68.734375 -40.34375 L 68.734375 -40.875 L 67.9375 -41.671875 L 66.609375 -40.34375 L 66.609375 -39.546875 L 67.9375 -39.546875 Z M 12.734375 -37.421875 L 12.734375 -39.015625 L 11.9375 -39.015625 L 10.609375 -37.421875 L 10.609375 -36.890625 L 11.40625 -36.09375 Z M 56.265625 -33.703125 L 58.390625 -33.703125 L 60.25 -31.046875 L 58.921875 -28.65625 L 56.796875 -28.65625 L 55.203125 -31.046875 L 55.203125 -32.375 Z M 25.21875 -11.671875 L 26.015625 -11.671875 L 26.546875 -11.140625 L 26.546875 -11.671875 L 22.5625 -18.3125 L 22.5625 -18.84375 C 25.21875 -18.84375 26.546875 -17.515625 26.546875 -14.859375 L 26.546875 -12.46875 L 27.609375 -12.46875 L 29.1875 -14.0625 C 28.488281 -18.84375 26.546875 -21.234375 23.359375 -21.234375 L 20.171875 -20.4375 L 20.171875 -21.234375 C 20.171875 -26.015625 22.5625 -28.40625 27.34375 -28.40625 L 26.015625 -29.71875 C 20.878906 -29.71875 17.78125 -25.648438 16.71875 -17.515625 L 17.25 -12.46875 C 16.007812 -12.46875 15.390625 -12.023438 15.390625 -11.140625 C 15.390625 -9.554688 17.070312 -8.675781 20.4375 -8.5 C 23.625 -8.5 25.21875 -9.554688 25.21875 -11.671875 Z M 70.0625 -16.1875 L 70.0625 -14.0625 L 69.265625 -13.265625 C 69.085938 -13.972656 69 -14.546875 69 -14.984375 C 69 -15.429688 69 -15.742188 69 -15.921875 L 69.265625 -16.1875 Z M 20.4375 0.265625 L 20.4375 0 L 19.375 0 Z M 20.96875 2.921875 L 20.96875 2.125 L 22.5625 2.125 L 22.5625 2.921875 L 22.03125 4.515625 Z M 49.09375 11.9375 L 49.890625 10.875 L 50.421875 11.140625 L 50.421875 11.9375 L 49.890625 12.734375 L 49.09375 12.734375 Z M 68.734375 15.125 L 68.734375 13.53125 L 70.859375 13.53125 L 70.859375 15.125 Z M 93.953125 23.359375 L 93.953125 22.03125 L 96.875 22.03125 L 96.875 23.359375 Z M 85.453125 24.15625 L 85.453125 22.5625 L 89.4375 22.5625 L 89.4375 24.15625 Z M 71.390625 25.484375 L 71.390625 24.15625 L 82.546875 23.359375 L 82.546875 24.953125 L 76.703125 24.953125 L 74.3125 25.484375 L 74.3125 24.953125 L 73.78125 25.484375 Z M 67.671875 25.484375 L 67.671875 24.15625 L 70.0625 24.15625 L 70.0625 25.484375 L 68.46875 26.28125 Z M 67.671875 25.484375 "/></g></g></g><g fill="#ffffff" fill-opacity="1"><g transform="translate(108.308959, 249.695545)"><g><path d="M 46.453125 -97.671875 C 46.453125 -94.660156 46.71875 -88.644531 47.25 -79.625 C 47.59375 -75.90625 47.765625 -72.585938 47.765625 -69.671875 C 47.765625 -66.753906 47.765625 -64.054688 47.765625 -61.578125 L 41.671875 -61.84375 L 40.078125 -61.3125 L 36.09375 -61.84375 L 35.5625 -61.84375 L 33.4375 -61.3125 L 32.375 -61.84375 L 27.609375 -61.3125 L 28.40625 -59.71875 L 29.453125 -60.78125 L 32.375 -60.25 L 32.640625 -60.515625 L 33.171875 -60.515625 L 33.4375 -60.25 L 33.171875 -59.71875 L 33.703125 -56 L 33.4375 -54.9375 L 33.703125 -53.34375 L 33.703125 -46.984375 L 33.96875 -40.34375 L 33.703125 -40.34375 L 33.703125 -39.546875 L 33.96875 -39.28125 L 33.96875 -38.75 L 33.703125 -38.484375 L 33.96875 -37.421875 L 33.703125 -32.90625 L 33.96875 -29.984375 L 34.765625 -29.984375 C 34.765625 -31.398438 35.03125 -32.375 35.5625 -32.90625 L 35.5625 -33.703125 C 35.03125 -34.765625 34.765625 -35.914062 34.765625 -37.15625 L 34.765625 -39.546875 L 35.5625 -42.46875 L 35.5625 -43 L 34.765625 -49.625 L 35.03125 -52.28125 L 34.765625 -52.8125 L 35.03125 -52.8125 L 35.03125 -53.609375 L 35.5625 -53.609375 L 35.5625 -52.28125 L 36.09375 -52.28125 L 36.09375 -53.34375 C 35.03125 -55.289062 34.5 -56.617188 34.5 -57.328125 L 34.765625 -59.453125 L 35.5625 -59.453125 L 36.09375 -58.921875 L 36.890625 -59.71875 L 37.15625 -59.71875 L 36.890625 -57.59375 L 36.890625 -57.328125 C 37.242188 -57.328125 37.421875 -58.035156 37.421875 -59.453125 L 37.953125 -59.453125 C 38.484375 -58.921875 38.75 -58.035156 38.75 -56.796875 L 38.75 -55.203125 L 39.28125 -55.203125 L 39.8125 -56 L 39.8125 -59.453125 L 40.609375 -61.046875 L 40.875 -61.046875 L 40.875 -59.71875 L 41.671875 -60.25 L 42.46875 -58.125 L 43.53125 -58.65625 L 44.0625 -58.65625 L 44.328125 -58.125 L 44.59375 -58.65625 L 44.859375 -58.65625 L 45.125 -58.125 C 45.125 -57.0625 45.390625 -56.53125 45.921875 -56.53125 L 46.1875 -56.53125 L 46.984375 -59.453125 L 46.984375 -59.71875 L 46.453125 -60.25 L 47.765625 -60.515625 C 47.765625 -59.984375 47.675781 -59.539062 47.5 -59.1875 L 47.5 -57.59375 L 46.984375 -57.59375 L 46.984375 -57.328125 L 47.5 -57.328125 L 46.984375 -54.140625 C 46.984375 -53.429688 46.9375 -52.765625 46.84375 -52.140625 C 46.757812 -51.523438 46.628906 -50.863281 46.453125 -50.15625 L 46.453125 -44.59375 L 45.125 -45.390625 L 44.859375 -45.65625 L 44.59375 -45.65625 L 44.59375 -44.859375 L 44.328125 -44.859375 L 44.0625 -49.890625 L 44.59375 -50.6875 C 44.414062 -54.582031 43.972656 -56.53125 43.265625 -56.53125 L 42.734375 -56.53125 L 42.734375 -49.09375 L 42.46875 -46.984375 L 42.734375 -46.984375 L 44.328125 -38.484375 L 44.59375 -38.484375 C 44.945312 -40.609375 45.390625 -41.671875 45.921875 -41.671875 L 45.390625 -41.9375 C 45.390625 -42.113281 45.742188 -42.554688 46.453125 -43.265625 L 46.453125 -42.46875 L 46.1875 -40.875 L 46.71875 -40.875 L 46.71875 -31.578125 L 46.984375 -22.03125 C 45.035156 -14.238281 42.554688 -8.3125 39.546875 -4.25 C 39.191406 -3.539062 38.21875 -2.832031 36.625 -2.125 C 34.851562 -1.769531 33.742188 -1.414062 33.296875 -1.0625 C 32.859375 -0.707031 32.195312 -0.175781 31.3125 0.53125 C 30.957031 0.707031 30.554688 1.015625 30.109375 1.453125 C 29.671875 1.898438 29.1875 2.300781 28.65625 2.65625 L 25.484375 2.125 L 25.484375 3.1875 L 27.609375 3.1875 C 27.429688 3.539062 27.078125 3.71875 26.546875 3.71875 C 23.710938 4.957031 19.640625 5.046875 14.328125 3.984375 C 12.023438 3.628906 9.859375 3.316406 7.828125 3.046875 C 5.796875 2.785156 3.894531 2.65625 2.125 2.65625 L -0.796875 -1.0625 C -0.972656 -1.414062 -1.0625 -2.253906 -1.0625 -3.578125 C -1.0625 -4.910156 -1.0625 -6.460938 -1.0625 -8.234375 L -1.328125 -23.890625 C -0.441406 -24.242188 1.238281 -24.597656 3.71875 -24.953125 C 6.195312 -25.304688 9.378906 -25.570312 13.265625 -25.75 C 14.148438 -26.8125 15.210938 -28.3125 16.453125 -30.25 C 17.691406 -32.195312 19.019531 -34.5 20.4375 -37.15625 C 20.4375 -40.164062 20.523438 -43.257812 20.703125 -46.4375 C 20.878906 -49.625 21.144531 -52.722656 21.5 -55.734375 C 21.320312 -57.148438 21.054688 -58.832031 20.703125 -60.78125 C 20.347656 -62.726562 19.992188 -65.113281 19.640625 -67.9375 L 20.4375 -67.9375 L 20.4375 -68.734375 L 19.640625 -68.734375 C 19.640625 -69.085938 19.679688 -69.660156 19.765625 -70.453125 C 19.859375 -71.253906 19.992188 -72.273438 20.171875 -73.515625 L 20.96875 -73.515625 L 20.96875 -74.3125 L 20.4375 -74.578125 C 20.96875 -78.648438 21.234375 -82.894531 21.234375 -87.3125 L 20.96875 -100.59375 L 20.96875 -132.96875 C 20.96875 -133.5 21.054688 -133.941406 21.234375 -134.296875 L 21.5 -135.890625 L 20.96875 -141.203125 C 22.207031 -141.203125 22.828125 -141.640625 22.828125 -142.515625 C 22.828125 -143.222656 22.207031 -143.84375 20.96875 -144.375 L 20.96875 -151.8125 C 20.96875 -155 21.007812 -158.757812 21.09375 -163.09375 C 21.1875 -167.425781 21.320312 -172.335938 21.5 -177.828125 L 21.5 -181.265625 C 21.320312 -181.972656 21.234375 -183.035156 21.234375 -184.453125 L 20.96875 -191.09375 C 20.96875 -191.976562 22.382812 -194.191406 25.21875 -197.734375 L 27.34375 -197.203125 C 27.875 -197.023438 28.535156 -196.847656 29.328125 -196.671875 C 30.117188 -196.492188 31.046875 -196.316406 32.109375 -196.140625 C 32.285156 -195.960938 32.640625 -195.875 33.171875 -195.875 L 33.96875 -196.40625 C 34.320312 -196.40625 34.585938 -196.445312 34.765625 -196.53125 C 34.941406 -196.625 35.117188 -196.671875 35.296875 -196.671875 C 35.648438 -196.671875 36.488281 -196.582031 37.8125 -196.40625 C 39.144531 -196.226562 40.785156 -195.875 42.734375 -195.34375 C 45.210938 -190.914062 46.453125 -179.675781 46.453125 -161.625 L 46.453125 -151.015625 C 47.503906 -146.054688 48.03125 -140.484375 48.03125 -134.296875 C 48.03125 -132.878906 48.03125 -131.328125 48.03125 -129.640625 C 48.03125 -127.960938 47.941406 -126.328125 47.765625 -124.734375 C 47.421875 -119.785156 47.113281 -115.054688 46.84375 -110.546875 C 46.582031 -106.035156 46.453125 -101.742188 46.453125 -97.671875 Z M 30.78125 -141.734375 C 27.601562 -141.734375 24.953125 -138.191406 22.828125 -131.109375 L 24.6875 -129.515625 L 29.453125 -129.515625 L 30.25 -126.859375 L 29.453125 -126.0625 L 31.3125 -123.671875 C 31.3125 -125.796875 31.753906 -126.859375 32.640625 -126.859375 L 31.84375 -127.65625 C 32.195312 -128.363281 33.347656 -129.335938 35.296875 -130.578125 L 35.296875 -131.109375 C 32.992188 -131.109375 31.664062 -132.96875 31.3125 -136.6875 C 30.957031 -138.28125 32.109375 -140.664062 34.765625 -143.84375 L 33.4375 -145.171875 C 31.664062 -143.929688 30.78125 -142.785156 30.78125 -141.734375 Z M 27.609375 -116.25 L 27.609375 -116.78125 L 26.8125 -117.3125 L 25.484375 -116.25 L 25.484375 -114.65625 L 26.28125 -114.65625 Z M 38.75 -100.328125 L 38.75 -101.921875 L 30.25 -101.921875 L 28.65625 -100.328125 Z M 41.40625 -93.6875 C 41.582031 -91.207031 42.203125 -89.789062 43.265625 -89.4375 L 42.46875 -93.953125 L 41.671875 -93.953125 Z M 38.21875 -83.078125 L 38.484375 -83.34375 L 37.6875 -84.40625 L 37.15625 -84.40625 L 36.359375 -83.609375 L 36.359375 -83.34375 L 36.890625 -82.546875 L 37.15625 -82.28125 Z M 36.890625 -70.0625 L 37.15625 -71.125 L 35.5625 -72.984375 L 34.765625 -72.984375 L 33.703125 -72.1875 L 33.4375 -71.65625 L 35.03125 -69.53125 L 35.828125 -69.265625 Z M 33.703125 -67.140625 L 33.703125 -67.671875 L 33.171875 -67.671875 L 32.640625 -67.140625 L 32.640625 -66.609375 L 33.171875 -66.34375 Z M 28.40625 -45.390625 L 27.078125 -45.390625 L 26.015625 -44.328125 L 27.34375 -42.46875 L 28.40625 -42.46875 L 29.453125 -43.265625 L 29.453125 -44.328125 Z M 40.34375 -30.25 L 40.078125 -28.40625 L 41.140625 -28.40625 L 40.875 -30.25 Z M 24.953125 -20.171875 L 25.484375 -20.703125 L 24.6875 -21.765625 L 24.6875 -20.4375 Z M 29.984375 -18.046875 L 29.984375 -17.78125 L 30.25 -17.25 L 31.046875 -18.046875 Z M 6.640625 -15.125 L 6.640625 -15.921875 L 6.375 -15.921875 L 5.046875 -14.328125 L 5.3125 -14.328125 Z M 19.375 2.921875 L 19.375 2.125 L 16.984375 2.125 L 16.984375 2.921875 Z M 24.6875 3.1875 L 24.6875 2.65625 L 23.625 2.65625 L 24.421875 3.1875 Z M 24.6875 3.1875 "/></g></g></g></g></g></g><g transform="matrix(1, 0, 0, 1, 14, 274)"><g clip-path="url(#3622c29a3c)"><g clip-path="url(#5d7e0732d4)"><g fill="#f1f0f0" fill-opacity="1"><g transform="translate(0.984655, 38.270691)"><g/></g></g></g><g fill="#f1f0f0" fill-opacity="1"><g transform="translate(10.043252, 38.270691)"><g><path d="M 12.578125 -13.984375 L 22.46875 -13.984375 L 22.46875 -1.078125 C 21.15625 -0.640625 19.796875 -0.289062 18.390625 -0.03125 C 16.984375 0.21875 15.390625 0.34375 13.609375 0.34375 C 11.128906 0.34375 9.023438 -0.144531 7.296875 -1.125 C 5.578125 -2.101562 4.269531 -3.546875 3.375 -5.453125 C 2.476562 -7.359375 2.03125 -9.703125 2.03125 -12.484375 C 2.03125 -15.097656 2.53125 -17.359375 3.53125 -19.265625 C 4.539062 -21.171875 6.007812 -22.644531 7.9375 -23.6875 C 9.875 -24.726562 12.238281 -25.25 15.03125 -25.25 C 16.351562 -25.25 17.65625 -25.109375 18.9375 -24.828125 C 20.21875 -24.546875 21.378906 -24.175781 22.421875 -23.71875 L 20.671875 -19.5 C 19.910156 -19.882812 19.039062 -20.207031 18.0625 -20.46875 C 17.09375 -20.726562 16.070312 -20.859375 15 -20.859375 C 13.46875 -20.859375 12.132812 -20.503906 11 -19.796875 C 9.875 -19.097656 9 -18.113281 8.375 -16.84375 C 7.757812 -15.582031 7.453125 -14.09375 7.453125 -12.375 C 7.453125 -10.75 7.671875 -9.3125 8.109375 -8.0625 C 8.554688 -6.8125 9.253906 -5.828125 10.203125 -5.109375 C 11.160156 -4.398438 12.410156 -4.046875 13.953125 -4.046875 C 14.703125 -4.046875 15.332031 -4.082031 15.84375 -4.15625 C 16.363281 -4.238281 16.847656 -4.316406 17.296875 -4.390625 L 17.296875 -9.59375 L 12.578125 -9.59375 Z M 12.578125 -13.984375 "/></g></g></g><g fill="#f1f0f0" fill-opacity="1"><g transform="translate(35.288494, 38.270691)"><g><path d="M 10.53125 -19.4375 C 13.082031 -19.4375 15.035156 -18.878906 16.390625 -17.765625 C 17.753906 -16.648438 18.4375 -14.957031 18.4375 -12.6875 L 18.4375 0 L 14.8125 0 L 13.8125 -2.59375 L 13.671875 -2.59375 C 13.128906 -1.90625 12.570312 -1.34375 12 -0.90625 C 11.4375 -0.476562 10.785156 -0.164062 10.046875 0.03125 C 9.304688 0.238281 8.410156 0.34375 7.359375 0.34375 C 6.234375 0.34375 5.222656 0.128906 4.328125 -0.296875 C 3.441406 -0.734375 2.742188 -1.394531 2.234375 -2.28125 C 1.722656 -3.175781 1.46875 -4.3125 1.46875 -5.6875 C 1.46875 -7.707031 2.175781 -9.195312 3.59375 -10.15625 C 5.007812 -11.113281 7.140625 -11.644531 9.984375 -11.75 L 13.28125 -11.859375 L 13.28125 -12.6875 C 13.28125 -13.6875 13.019531 -14.414062 12.5 -14.875 C 11.976562 -15.34375 11.25 -15.578125 10.3125 -15.578125 C 9.394531 -15.578125 8.492188 -15.445312 7.609375 -15.1875 C 6.722656 -14.925781 5.835938 -14.597656 4.953125 -14.203125 L 3.234375 -17.703125 C 4.242188 -18.242188 5.375 -18.664062 6.625 -18.96875 C 7.882812 -19.28125 9.1875 -19.4375 10.53125 -19.4375 Z M 13.28125 -8.828125 L 11.265625 -8.75 C 9.585938 -8.707031 8.421875 -8.40625 7.765625 -7.84375 C 7.117188 -7.289062 6.796875 -6.5625 6.796875 -5.65625 C 6.796875 -4.863281 7.023438 -4.296875 7.484375 -3.953125 C 7.953125 -3.617188 8.5625 -3.453125 9.3125 -3.453125 C 10.425781 -3.453125 11.363281 -3.78125 12.125 -4.4375 C 12.894531 -5.101562 13.28125 -6.039062 13.28125 -7.25 Z M 13.28125 -8.828125 "/></g></g></g><g fill="#f1f0f0" fill-opacity="1"><g transform="translate(56.346056, 38.270691)"><g><path d="M 7.921875 0 L 2.71875 0 L 2.71875 -26.5 L 7.921875 -26.5 Z M 7.921875 0 "/></g></g></g><g fill="#f1f0f0" fill-opacity="1"><g transform="translate(66.98549, 38.270691)"><g><path d="M 7.921875 0 L 2.71875 0 L 2.71875 -26.5 L 7.921875 -26.5 Z M 7.921875 0 "/></g></g></g><g fill="#f1f0f0" fill-opacity="1"><g transform="translate(77.624925, 38.270691)"><g><path d="M 10.578125 -19.390625 C 12.335938 -19.390625 13.851562 -19.050781 15.125 -18.375 C 16.394531 -17.707031 17.375 -16.726562 18.0625 -15.4375 C 18.757812 -14.15625 19.109375 -12.59375 19.109375 -10.75 L 19.109375 -8.21875 L 6.828125 -8.21875 C 6.878906 -6.757812 7.316406 -5.613281 8.140625 -4.78125 C 8.972656 -3.945312 10.117188 -3.53125 11.578125 -3.53125 C 12.796875 -3.53125 13.910156 -3.65625 14.921875 -3.90625 C 15.929688 -4.15625 16.96875 -4.53125 18.03125 -5.03125 L 18.03125 -1 C 17.09375 -0.539062 16.109375 -0.203125 15.078125 0.015625 C 14.046875 0.234375 12.800781 0.34375 11.34375 0.34375 C 9.4375 0.34375 7.742188 -0.00390625 6.265625 -0.703125 C 4.796875 -1.410156 3.644531 -2.484375 2.8125 -3.921875 C 1.976562 -5.367188 1.5625 -7.191406 1.5625 -9.390625 C 1.5625 -11.609375 1.9375 -13.457031 2.6875 -14.9375 C 3.445312 -16.425781 4.503906 -17.539062 5.859375 -18.28125 C 7.210938 -19.019531 8.785156 -19.390625 10.578125 -19.390625 Z M 10.609375 -15.703125 C 9.597656 -15.703125 8.757812 -15.378906 8.09375 -14.734375 C 7.425781 -14.085938 7.046875 -13.070312 6.953125 -11.6875 L 14.234375 -11.6875 C 14.222656 -12.457031 14.082031 -13.140625 13.8125 -13.734375 C 13.550781 -14.335938 13.15625 -14.816406 12.625 -15.171875 C 12.09375 -15.523438 11.421875 -15.703125 10.609375 -15.703125 Z M 10.609375 -15.703125 "/></g></g></g><g fill="#f1f0f0" fill-opacity="1"><g transform="translate(98.222858, 38.270691)"><g><path d="M 13.34375 -19.390625 C 13.613281 -19.390625 13.921875 -19.375 14.265625 -19.34375 C 14.609375 -19.320312 14.890625 -19.289062 15.109375 -19.25 L 14.71875 -14.375 C 14.539062 -14.425781 14.296875 -14.46875 13.984375 -14.5 C 13.671875 -14.53125 13.40625 -14.546875 13.1875 -14.546875 C 12.507812 -14.546875 11.851562 -14.457031 11.21875 -14.28125 C 10.59375 -14.113281 10.03125 -13.835938 9.53125 -13.453125 C 9.03125 -13.078125 8.632812 -12.578125 8.34375 -11.953125 C 8.0625 -11.335938 7.921875 -10.582031 7.921875 -9.6875 L 7.921875 0 L 2.71875 0 L 2.71875 -19.03125 L 6.65625 -19.03125 L 7.421875 -15.84375 L 7.6875 -15.84375 C 8.050781 -16.488281 8.515625 -17.078125 9.078125 -17.609375 C 9.640625 -18.148438 10.28125 -18.582031 11 -18.90625 C 11.726562 -19.226562 12.507812 -19.390625 13.34375 -19.390625 Z M 13.34375 -19.390625 "/></g></g></g><g fill="#f1f0f0" fill-opacity="1"><g transform="translate(114.054327, 38.270691)"><g><path d="M 0 -19.03125 L 5.6875 -19.03125 L 9.28125 -8.328125 C 9.394531 -7.984375 9.488281 -7.632812 9.5625 -7.28125 C 9.644531 -6.9375 9.710938 -6.578125 9.765625 -6.203125 C 9.828125 -5.828125 9.875 -5.4375 9.90625 -5.03125 L 10.015625 -5.03125 C 10.078125 -5.632812 10.164062 -6.203125 10.28125 -6.734375 C 10.40625 -7.273438 10.5625 -7.804688 10.75 -8.328125 L 14.265625 -19.03125 L 19.84375 -19.03125 L 11.78125 2.4375 C 11.289062 3.75 10.65625 4.84375 9.875 5.71875 C 9.09375 6.601562 8.191406 7.265625 7.171875 7.703125 C 6.160156 8.148438 5.046875 8.375 3.828125 8.375 C 3.242188 8.375 2.734375 8.34375 2.296875 8.28125 C 1.867188 8.21875 1.5 8.15625 1.1875 8.09375 L 1.1875 3.96875 C 1.425781 4.019531 1.726562 4.066406 2.09375 4.109375 C 2.457031 4.160156 2.835938 4.1875 3.234375 4.1875 C 3.960938 4.1875 4.585938 4.03125 5.109375 3.71875 C 5.628906 3.414062 6.066406 3.003906 6.421875 2.484375 C 6.773438 1.972656 7.050781 1.410156 7.25 0.796875 L 7.5625 -0.140625 Z M 0 -19.03125 "/></g></g></g></g></g></g></g></svg>